PathFileType	3	(X/Y/Z)	E:\ViconData\BIOM9541 2025\Week 7\Wed1100\Hanif 90 squat 5 Squat 01.trc
DataRate	CameraRate	NumFrames	NumMarkers	Units	OrigDataRate	OrigDataStartFrame	OrigNumFrames
200.0	200.0	20	19	mm	200.0	1390	1853	
Frame#	Time	C7			CLAV			RBAK			LASI			RASI			LPSI			RPSI			LTHI			LKNE			LTIB			LANK			LHEE			LTOE			RTHI			RKNE			RTIB			RANK			RHEE			RTOE			
		X1	Y1	Z1	X2	Y2	Z2	X3	Y3	Z3	X4	Y4	Z4	X5	Y5	Z5	X6	Y6	Z6	X7	Y7	Z7	X8	Y8	Z8	X9	Y9	Z9	X10	Y10	Z10	X11	Y11	Z11	X12	Y12	Z12	X13	Y13	Z13	X14	Y14	Z14	X15	Y15	Z15	X16	Y16	Z16	X17	Y17	Z17	X18	Y18	Z18	X19	Y19	Z19	
1390	6.945	359.75357	1263.7451	-1231.9989	213.20792	1189.6826	-1222.5415	376.01709	1184.1697	-1377.5933	277.30399	826.38281	-1096.934	265.13782	836.59686	-1358.0951	441.05908	890.31262	-1186.8401	439.30875	886.19708	-1260.6377	241.33278	556.34869	-972.73718	200.36421	419.16025	-957.6286	260.97086	216.59529	-945.24591	304.79153	63.309364	-970.53925	328.48083	49.331291	-1030.7322	164.45049	40.488045	-946.19421	301.35565	704.76392	-1434.4409	204.21951	409.43842	-1476.3864	226.30594	323.18692	-1483.9963	299.68866	71.195389	-1436.7009	323.7934	49.471752	-1367.5548	166.25969	42.391998	-1464.5851
1391	6.95	359.93811	1267.1871	-1231.9492	213.32417	1193.3702	-1222.4474	376.17508	1187.7281	-1377.5081	276.21451	829.93945	-1096.8425	264.23999	840.18207	-1358.156	440.04691	893.74426	-1186.6664	438.25201	889.64709	-1260.379	242.45947	557.53467	-973.84607	203.01842	419.90662	-959.40308	262.2796	216.85582	-945.99725	304.98029	63.312382	-970.35638	328.78098	49.262184	-1030.639	164.57796	40.605061	-946.39203	301.06326	707.08582	-1434.0115	206.98033	410.50095	-1474.8553	228.67743	324.02182	-1482.7772	300.0249	71.252487	-1436.6752	324.05609	49.422337	-1367.6694	166.40627	42.492207	-1464.4209
1392	6.955	360.13956	1270.5615	-1231.9552	213.45818	1196.9731	-1222.5009	376.3649	1191.1577	-1377.4893	275.16779	833.4361	-1096.8101	263.3736	843.54797	-1358.1005	439.07254	897.10107	-1186.7864	437.63474	892.72308	-1260.7252	243.52226	558.71722	-974.92084	205.62677	420.65753	-961.19489	263.59799	217.30493	-946.63574	305.22992	63.291473	-970.2511	328.98209	49.145344	-1030.4701	164.71645	40.716473	-946.63214	300.76389	709.4986	-1433.7406	209.70473	411.40125	-1473.2855	231.08598	324.76624	-1481.578	300.41449	71.22403	-1436.7307	324.36063	49.323036	-1367.8615	166.54297	42.489449	-1464.257
1393	6.96	360.3093	1273.7687	-1231.8839	213.60461	1200.4514	-1222.5349	376.23407	1194.0275	-1376.9435	274.15536	836.74988	-1096.8892	262.49753	846.84161	-1358.0293	438.0712	900.2644	-1186.7777	436.41537	896.38947	-1260.0692	244.67198	559.82312	-976.04419	208.20682	421.29584	-962.94171	264.83853	217.61053	-947.34021	305.43085	63.265839	-970.15991	329.24518	48.995926	-1030.3416	164.77411	40.782356	-946.86395	300.45059	711.35895	-1433.0275	212.50145	412.25656	-1471.7375	233.52594	325.48764	-1480.4048	300.74612	71.189156	-1436.7705	324.63007	49.199093	-1368.1102	166.57773	42.428566	-1464.1622
1394	6.965	360.52203	1276.9344	-1231.8553	213.7397	1203.8134	-1222.3784	376.67261	1197.5665	-1377.3911	273.05423	840.02429	-1096.7246	261.57547	850.06207	-1358.0381	437.07065	903.3891	-1186.694	435.79871	899.14612	-1260.5288	245.78215	560.82153	-977.15179	210.86897	421.86829	-964.69965	266.07755	217.95265	-947.96704	305.63312	63.211143	-970.05804	329.41772	48.883358	-1030.1672	164.79575	40.833454	-947.06854	300.08804	713.42828	-1432.6155	215.2771	413.13638	-1470.1681	235.97487	326.19495	-1479.2739	301.04074	71.177246	-1436.8032	324.83978	49.115173	-1368.2855	166.55396	42.387405	-1464.0334
1395	6.97	360.79041	1279.9622	-1231.8811	213.87656	1206.9746	-1222.463	376.82111	1200.579	-1377.3356	272.07504	843.11682	-1096.9176	260.61157	853.15045	-1357.912	436.035	906.3703	-1186.4615	434.41138	902.4574	-1259.6897	246.89314	561.63129	-978.32178	213.54837	422.37909	-966.47705	267.32159	218.20926	-948.68378	305.7251	63.091606	-969.987	329.58078	48.832912	-1030.0099	164.81483	40.80761	-947.21222	299.73053	715.62347	-1432.2755	218.01346	414.03604	-1468.5826	238.41695	327.00201	-1478.1666	301.30588	71.212029	-1436.8268	325.02991	49.038303	-1368.382	166.49904	42.378056	-1463.9022
1396	6.975	361.0097	1282.9275	-1231.7826	214.02338	1210.0438	-1222.3094	376.61752	1202.9946	-1376.7566	270.90588	846.11115	-1096.5093	259.6109	856.2547	-1357.8835	435.01419	909.32324	-1186.0481	433.73157	904.85754	-1260.1439	248.06052	562.41852	-979.49609	216.17892	422.77866	-968.2818	268.56372	218.46368	-949.3468	305.80771	63.025452	-969.85852	329.7785	48.793964	-1029.8445	164.8251	40.805813	-947.42035	299.30002	717.35089	-1431.58	220.85497	414.96466	-1467.0219	240.88693	327.73254	-1477.0054	301.5184	71.289513	-1436.8661	325.15652	49.015659	-1368.4077	166.39575	42.39806	-1463.8037
1397	6.98	361.29605	1285.667	-1231.8801	214.22408	1213.0828	-1222.3612	377.16641	1206.2189	-1377.2576	269.91217	848.94116	-1096.4811	258.67429	859.11859	-1357.7819	433.98267	912.09131	-1185.6707	432.43396	907.88165	-1259.5446	249.23157	563.2049	-980.68781	218.8376	423.27066	-970.05334	269.74438	218.70853	-950.04352	305.93756	62.936695	-969.76825	329.97888	48.711422	-1029.7279	164.83743	40.864613	-947.64838	298.90213	719.18414	-1431.079	223.67636	415.82355	-1465.4581	243.38881	328.40787	-1475.8811	301.72455	71.364761	-1436.8788	325.3053	49.018154	-1368.5049	166.35185	42.39922	-1463.7175
1398	6.985	361.56155	1288.395	-1231.8744	214.37454	1215.9138	-1222.4342	377.06329	1208.3051	-1376.776	268.81342	851.84003	-1096.3914	257.69717	861.81805	-1357.6105	433.03397	914.75165	-1185.7618	431.36133	910.77722	-1259.1365	250.39864	563.97211	-981.85687	221.51479	423.63901	-971.85608	270.9715	219.03433	-950.68231	306.12405	62.906696	-969.73584	330.12817	48.499889	-1029.6034	164.88295	41.047218	-948.14319	298.57184	721.03082	-1430.7314	226.5305	416.4946	-1463.8771	245.87726	328.94904	-1474.7114	301.99899	71.287994	-1436.9473	325.47833	48.95013	-1368.6942	166.35214	42.318554	-1463.5752
1399	6.99	361.84122	1290.8632	-1231.859	214.57727	1218.7415	-1222.3301	377.16464	1210.7762	-1376.645	267.74527	854.60828	-1096.2159	256.72021	864.42261	-1357.4993	432.04733	917.1441	-1185.8069	430.86591	912.98401	-1259.7156	251.60649	564.63757	-983.02155	224.1436	424.08743	-973.57971	272.27689	219.29387	-951.47089	306.34232	62.87743	-969.71497	330.37567	48.353642	-1029.5651	164.93996	41.261688	-948.64136	298.16373	722.58221	-1430.2151	229.40785	417.17175	-1462.2881	248.31201	329.45258	-1473.5463	302.25339	71.239304	-1436.9747	325.65652	48.834042	-1368.8999	166.38301	42.287331	-1463.4586
1400	6.995	362.13489	1293.3011	-1231.8448	214.73026	1221.3998	-1222.2936	377.40689	1213.1689	-1376.5367	266.6058	857.15009	-1095.9663	255.65031	867.02966	-1357.3413	431.04138	919.49896	-1185.775	429.50803	915.78973	-1259.0001	252.84308	565.19116	-984.25684	226.83492	424.34277	-975.38892	273.58929	219.55136	-952.14728	306.63354	62.833549	-969.67084	330.64001	48.21814	-1029.5198	165.10103	41.457703	-948.87378	297.72284	724.11639	-1429.7389	232.22466	417.65903	-1460.6614	250.7188	329.96542	-1472.4061	302.53091	71.230011	-1436.9847	325.85806	48.748936	-1368.965	166.45767	42.308437	-1463.3182
1401	7	362.40833	1295.6188	-1231.8152	214.91064	1223.9932	-1221.9895	377.59961	1215.3151	-1376.4924	265.604	859.5816	-1095.7911	254.68579	869.31866	-1357.1167	430.08472	921.79742	-1185.569	428.86154	917.69037	-1259.4366	254.07559	565.61145	-985.48132	229.50749	424.67383	-977.18689	274.93329	219.77252	-952.94696	306.87091	62.887325	-969.58331	330.95105	48.179283	-1029.4843	165.28084	41.653328	-949.05585	297.2919	725.66034	-1429.2002	235.01297	418.30914	-1459.0219	253.12698	330.48462	-1471.2422	302.8461	71.297302	-1436.9309	326.05206	48.692432	-1369.0106	166.57793	42.449635	-1463.2061
1402	7.005	362.70233	1297.7036	-1231.8044	215.13243	1226.3994	-1221.9097	377.82956	1217.3132	-1376.4353	264.58469	861.91797	-1095.6056	253.61543	871.70667	-1356.9708	429.04947	923.95581	-1185.1655	427.43277	920.04944	-1258.7047	255.37651	566.02948	-986.7226	232.09695	424.84937	-978.94073	276.26611	220.06895	-953.61139	307.18082	62.928356	-969.52448	331.20663	48.107437	-1029.3802	165.53246	41.840782	-949.37006	296.84772	727.09192	-1428.7595	237.7603	418.80222	-1457.4133	255.5027	331.01199	-1470.1206	303.18341	71.381073	-1436.8959	326.30917	48.641846	-1369.0593	166.70833	42.58638	-1463.1128
1403	7.01	363.0184	1299.686	-1231.8566	215.33455	1228.7203	-1221.9209	378.09027	1219.1852	-1376.4124	263.60013	864.02014	-1095.4912	252.64049	873.74457	-1356.7185	428.0849	925.98151	-1185.166	426.79163	921.66833	-1259.1781	256.70004	566.36517	-988.04376	234.72078	425.03238	-980.71289	277.69641	220.40872	-954.3811	307.5405	62.914318	-969.6203	331.52557	47.987293	-1029.3405	165.78401	41.974625	-949.88562	296.43088	728.30225	-1428.3004	240.48892	419.19214	-1455.8207	257.91312	331.36728	-1468.9371	303.57742	71.337914	-1436.9241	326.6004	48.549633	-1369.1116	166.86055	42.647141	-1462.9692
1404	7.015	363.35684	1301.5483	-1231.8861	215.53168	1230.892	-1221.9159	378.42233	1220.9835	-1376.3579	262.53259	866.17834	-1095.2334	251.68387	875.63696	-1356.5259	427.12256	927.73358	-1185.0563	425.52466	923.97882	-1258.5203	257.99185	566.72137	-989.28326	237.35875	425.2478	-982.49188	279.11761	220.41829	-955.39728	307.89981	62.868423	-969.7561	331.74014	47.780643	-1029.2695	165.93613	42.086735	-950.42615	296.05844	729.16553	-1427.7628	243.17029	419.55612	-1454.2424	260.27689	331.6676	-1467.8635	303.98846	71.285004	-1436.9518	326.91635	48.437485	-1369.2214	167.03775	42.649403	-1462.8226
1405	7.02	363.6777	1303.3037	-1231.8605	215.74364	1232.9403	-1221.9969	378.60483	1222.562	-1376.2379	261.54025	868.07758	-1095.0034	250.64934	877.48041	-1356.3379	426.19165	929.57391	-1185.0776	424.93118	925.50177	-1258.9998	259.36304	566.94769	-990.5838	239.94351	425.38052	-984.21307	280.55847	220.49298	-956.36053	308.17383	62.842697	-969.81042	331.96051	47.622238	-1029.2578	166.03241	42.155148	-950.67627	295.73303	730.35858	-1427.4618	245.76321	419.86746	-1452.6781	262.61005	331.98187	-1466.7705	304.319	71.321182	-1436.9121	327.15775	48.310429	-1369.3397	167.17899	42.706005	-1462.6949
1406	7.025	364.03592	1304.9092	-1231.8472	215.93166	1234.8571	-1221.906	378.88306	1224.0137	-1376.1897	260.54745	869.91736	-1094.7617	249.65742	879.22705	-1356.174	425.1828	931.23352	-1184.8719	423.57159	927.5025	-1258.2549	260.71652	567.09058	-991.82355	242.52791	425.56699	-985.87689	282.16373	220.95798	-957.1546	308.41592	62.81525	-969.82855	332.07034	47.545296	-1029.1967	166.14691	42.22654	-950.86456	295.24042	731.43732	-1427.0305	248.27026	420.35471	-1451.1239	264.86526	332.36032	-1465.7428	304.67288	71.346909	-1436.91	327.37033	48.237778	-1369.3467	167.26971	42.869156	-1462.5377
1407	7.03	364.37561	1306.3854	-1231.8536	216.13142	1236.6649	-1221.8062	379.11526	1225.3859	-1376.0936	259.62778	871.45105	-1094.6907	248.65611	880.84717	-1355.9805	424.2359	932.80273	-1184.6591	422.43491	928.70209	-1258.147	262.05695	567.15509	-993.00745	245.02466	425.5723	-987.50555	283.49197	221.39081	-957.48291	308.57608	62.848186	-969.78973	332.2276	47.521767	-1029.1647	166.25114	42.297131	-950.96039	294.87427	732.40869	-1426.6121	250.71367	420.70316	-1449.5618	267.02579	332.79752	-1464.715	304.99268	71.457985	-1436.8412	327.57581	48.20705	-1369.3204	167.33394	42.989674	-1462.377
1408	7.035	364.70139	1307.7062	-1231.8436	216.38391	1238.3845	-1221.7708	379.35919	1226.6431	-1376.0138	258.63547	872.95453	-1094.3171	247.68735	882.34235	-1355.7297	423.27298	934.16437	-1184.2957	421.60962	930.19543	-1258.1317	263.40347	567.30273	-994.03363	247.5099	425.681	-989.06201	284.90729	221.20905	-958.70239	308.77808	62.845558	-969.76746	332.42477	47.487324	-1029.2004	166.38721	42.313648	-951.09991	294.5361	733.08057	-1426.1897	253.11563	421.12997	-1448.03	269.14667	333.13687	-1463.6185	305.27283	71.520531	-1436.7373	327.75696	48.15654	-1369.347	167.38634	43.078773	-1462.2549
1409	7.04	365.00372	1308.911	-1231.8041	216.60347	1239.9335	-1221.9092	379.64093	1227.799	-1375.9113	257.69711	874.34058	-1094.2379	246.69214	883.68701	-1355.5239	422.43671	935.36908	-1184.4735	420.83453	931.82367	-1257.9738	264.71136	567.29614	-995.19226	249.88695	425.74506	-990.60522	286.13565	221.92741	-958.77374	309.06467	62.818764	-969.85175	332.5824	47.333176	-1029.1786	166.47894	42.339542	-951.27283	294.15186	733.64471	-1425.7218	255.4725	421.39514	-1446.5374	271.21646	333.38043	-1462.5609	305.53015	71.49691	-1436.6268	327.91882	48.021652	-1369.5438	167.44606	42.988941	-1462.1223
